<?xml version="1.0" standalone="no"?>
<!DOCTYPE svg PUBLIC "-//W3C//DTD SVG 20010904//EN"
 "http://www.w3.org/TR/2001/REC-SVG-20010904/DTD/svg10.dtd">
<svg version="1.0" xmlns="http://www.w3.org/2000/svg"
 width="1078.000000pt" height="1078.000000pt" viewBox="0 0 1078.000000 1078.000000"
 preserveAspectRatio="xMidYMid meet">
<metadata>
Created by potrace 1.11, written by Peter Selinger 2001-2013
</metadata>
<g transform="translate(0.000000,1078.000000) scale(0.100000,-0.100000)"
fill="#000000" stroke="none">
<path d="M1650 5397 l0 -4035 663 -7 c364 -3 752 -5 862 -3 l200 3 3 1307 2
1308 639 0 639 0 917 -1303 918 -1304 501 -6 c626 -9 1476 -9 1476 -1 0 3
-446 639 -990 1412 l-990 1406 72 27 c794 292 1408 928 1641 1699 86 284 112
471 111 810 0 222 -4 288 -22 405 -61 386 -195 736 -400 1045 -420 632 -1112
1063 -1942 1210 -320 56 -200 53 -2332 57 l-1968 4 0 -4034z m3695 2428 c469
-55 824 -246 1026 -554 104 -159 149 -311 156 -531 4 -133 2 -170 -16 -259
-107 -516 -556 -849 -1226 -911 -64 -6 -484 -10 -1007 -10 l-898 0 0 1140 0
1140 918 0 c756 0 940 -3 1047 -15z"/>
</g>
</svg>
